<svg width="90" height="17" viewBox="0 0 90 17" fill="none" xmlns="http://www.w3.org/2000/svg">
<path d="M0.752094 17V0.199999H8.62409C10.6401 0.199999 12.1761 0.599999 13.2321 1.4C14.2881 2.184 14.8161 3.24 14.8161 4.568C14.8161 5.464 14.6081 6.232 14.1921 6.872C13.7761 7.496 13.2161 7.984 12.5121 8.336C11.8241 8.672 11.0721 8.84 10.2561 8.84L10.6881 7.976C11.6321 7.976 12.4801 8.152 13.2321 8.504C13.9841 8.84 14.5761 9.336 15.0081 9.992C15.4561 10.648 15.6801 11.464 15.6801 12.44C15.6801 13.88 15.1281 15 14.0241 15.8C12.9201 16.6 11.2801 17 9.10409 17H0.752094ZM3.87209 14.552H8.91209C10.0801 14.552 10.9761 14.36 11.6001 13.976C12.2241 13.592 12.5361 12.976 12.5361 12.128C12.5361 11.296 12.2241 10.688 11.6001 10.304C10.9761 9.904 10.0801 9.704 8.91209 9.704H3.63209V7.28H8.28809C9.37609 7.28 10.2081 7.088 10.7841 6.704C11.3761 6.32 11.6721 5.744 11.6721 4.976C11.6721 4.192 11.3761 3.608 10.7841 3.224C10.2081 2.84 9.37609 2.648 8.28809 2.648H3.87209V14.552ZM19.0099 17V0.199999H22.1299V17H19.0099ZM25.402 17V14.912L36.25 1.664L36.61 2.84H25.57V0.199999H39.418V2.288L28.57 15.536L28.186 14.36H39.73V17H25.402Z" fill="#3BAA67"/>
<path d="M42.588 17V0.199999H49.5C50.988 0.199999 52.26 0.439999 53.316 0.92C54.388 1.4 55.212 2.088 55.788 2.984C56.364 3.88 56.652 4.944 56.652 6.176C56.652 7.408 56.364 8.472 55.788 9.368C55.212 10.264 54.388 10.952 53.316 11.432C52.26 11.912 50.988 12.152 49.5 12.152H44.316L45.708 10.688V17H42.588ZM45.708 11.024L44.316 9.512H49.356C50.732 9.512 51.764 9.224 52.452 8.648C53.156 8.056 53.508 7.232 53.508 6.176C53.508 5.104 53.156 4.28 52.452 3.704C51.764 3.128 50.732 2.84 49.356 2.84H44.316L45.708 1.304V11.024ZM56.548 17L64.108 0.199999H67.18L74.764 17H71.5L64.996 1.856H66.244L59.764 17H56.548ZM60.028 13.112L60.868 10.664H69.94L70.78 13.112H60.028ZM80.0207 17V10.352L80.7167 12.272L73.4207 0.199999H76.7567L82.6127 9.92H80.7407L86.6447 0.199999H89.7167L82.4207 12.272L83.1407 10.352V17H80.0207Z" fill="#F09853"/>
</svg>
